<svg width="148" height="148" viewBox="0 0 148 148" fill="none" xmlns="http://www.w3.org/2000/svg">
<path d="M18.5 129.5V117.167C18.5 110.625 21.0988 104.351 25.7247 99.7247C30.3506 95.0988 36.6247 92.5 43.1667 92.5H67.8333C74.3753 92.5 80.6494 95.0988 85.2753 99.7247C89.9012 104.351 92.5 110.625 92.5 117.167V129.5M98.6667 19.3017C103.973 20.6602 108.675 23.746 112.034 28.0726C115.392 32.3992 117.215 37.7205 117.215 43.1975C117.215 48.6746 115.392 53.9958 112.034 58.3224C108.675 62.649 103.973 65.7348 98.6667 67.0933M129.5 129.5V117.167C129.469 111.722 127.637 106.442 124.291 102.147C120.944 97.8527 116.271 94.786 111 93.425M30.8333 43.1667C30.8333 49.7087 33.4321 55.9827 38.058 60.6086C42.6839 65.2345 48.958 67.8333 55.5 67.8333C62.042 67.8333 68.3161 65.2345 72.942 60.6086C77.5679 55.9827 80.1667 49.7087 80.1667 43.1667C80.1667 36.6247 77.5679 30.3506 72.942 25.7247C68.3161 21.0988 62.042 18.5 55.5 18.5C48.958 18.5 42.6839 21.0988 38.058 25.7247C33.4321 30.3506 30.8333 36.6247 30.8333 43.1667Z" stroke="black" stroke-width="2" stroke-linecap="round" stroke-linejoin="round"/>
</svg>
