<svg width="148" height="148" viewBox="0 0 148 148" fill="none" xmlns="http://www.w3.org/2000/svg">
<path d="M102.983 49.3333C101.756 45.8506 99.5143 42.815 96.547 40.617C93.5797 38.419 90.0226 37.1593 86.3333 37H61.6667C56.7602 37 52.0546 38.9491 48.5852 42.4185C45.1158 45.8879 43.1667 50.5935 43.1667 55.5C43.1667 60.4065 45.1158 65.1121 48.5852 68.5815C52.0546 72.0509 56.7602 74 61.6667 74H86.3333C91.2398 74 95.9454 75.9491 99.4148 79.4185C102.884 82.8879 104.833 87.5935 104.833 92.5C104.833 97.4065 102.884 102.112 99.4148 105.581C95.9454 109.051 91.2398 111 86.3333 111H61.6667C57.9774 110.841 54.4203 109.581 51.453 107.383C48.4857 105.185 46.2441 102.149 45.0167 98.6667M74 18.5V37M74 111V129.5" stroke="black" stroke-width="2" stroke-linecap="round" stroke-linejoin="round"/>
</svg>
