<svg width="148" height="148" viewBox="0 0 148 148" fill="none" xmlns="http://www.w3.org/2000/svg">
<path d="M83.99 51.6889L96.1137 39.5591C94.6793 38.1251 93.6207 36.3596 93.0317 34.4189C92.4426 32.4782 92.3412 30.4221 92.7365 28.4329C93.1318 26.4436 94.0116 24.5825 95.298 23.0145C96.5843 21.4464 98.2375 20.2198 100.111 19.4433C101.985 18.6667 104.021 18.3642 106.039 18.5625C108.058 18.7608 109.996 19.4539 111.683 20.5802C113.369 21.7066 114.752 23.2315 115.709 25.0199C116.665 26.8083 117.166 28.8051 117.167 30.8332C119.195 30.8318 121.193 31.3308 122.983 32.286C124.772 33.2412 126.299 34.6232 127.427 36.3094C128.555 37.9956 129.249 39.9341 129.449 41.9529C129.649 43.9717 129.347 46.0086 128.571 47.8831C127.795 49.7576 126.569 51.4117 125.001 52.699C123.433 53.9862 121.572 54.8668 119.582 55.2628C117.593 55.6587 115.536 55.5576 113.595 54.9687C111.653 54.3797 109.887 53.3209 108.453 51.8862L97.2298 63.1157M46.25 98.6666L52.4167 104.833M36.408 114.675C53.2615 131.535 72.7913 139.342 80.0063 132.121C87.2337 124.893 79.4267 105.37 62.567 88.5162C45.7135 71.6566 26.1837 63.8496 18.9687 71.0707C11.7413 78.2981 19.5483 97.8217 36.408 114.675Z" stroke="black" stroke-width="2" stroke-linecap="round" stroke-linejoin="round"/>
<path d="M80.0125 132.121C89.7682 122.365 96.533 111.111 100.005 100.054M102.367 77.7C101.38 70.0657 98.3398 63.2392 93.092 57.9975C87.8503 52.7558 81.0362 49.7095 73.408 48.729M51.023 51.0847C39.9723 54.5565 28.7243 61.3213 18.9687 71.077M18.5 18.5L129.5 129.5" stroke="black" stroke-width="2" stroke-linecap="round" stroke-linejoin="round"/>
</svg>
